<?xml version="1.0" encoding="UTF-8"?>
<!DOCTYPE svg PUBLIC "-//W3C//DTD SVG 1.1//EN" "http://www.w3.org/Graphics/SVG/1.1/DTD/svg11.dtd">
<!-- Creator: CorelDRAW X7 -->
<svg xmlns="http://www.w3.org/2000/svg" xml:space="preserve" width="2.51219in" height="0.601988in" version="1.1" style="shape-rendering:geometricPrecision; text-rendering:geometricPrecision; image-rendering:optimizeQuality; fill-rule:evenodd; clip-rule:evenodd"
viewBox="0 0 3316 795"
 xmlns:xlink="http://www.w3.org/1999/xlink">
 <defs>
  <style type="text/css">
   <![CDATA[
    .fil2 {fill:#C99C4A;fill-rule:nonzero}
    .fil10 {fill:url(#id0)}
    .fil7 {fill:url(#id1)}
    .fil8 {fill:url(#id2)}
    .fil11 {fill:url(#id3)}
    .fil9 {fill:url(#id4)}
    .fil15 {fill:url(#id5)}
    .fil17 {fill:url(#id6)}
    .fil4 {fill:url(#id7)}
    .fil6 {fill:url(#id8)}
    .fil18 {fill:url(#id9)}
    .fil1 {fill:url(#id10)}
    .fil13 {fill:url(#id11)}
    .fil12 {fill:url(#id12)}
    .fil5 {fill:url(#id13)}
    .fil0 {fill:url(#id14)}
    .fil14 {fill:url(#id15)}
    .fil16 {fill:url(#id16)}
    .fil3 {fill:url(#id17);fill-rule:nonzero}
   ]]>
  </style>
  <linearGradient id="id0" gradientUnits="userSpaceOnUse" x1="195.204" y1="367.73" x2="232.723" y2="400.499">
   <stop offset="0" style="stop-opacity:1; stop-color:#F19512"/>
   <stop offset="1" style="stop-opacity:1; stop-color:#F6E710"/>
  </linearGradient>
  <linearGradient id="id1" gradientUnits="userSpaceOnUse" xlink:href="#id0" x1="436.61" y1="197.495" x2="430.452" y2="272.975">
  </linearGradient>
  <linearGradient id="id2" gradientUnits="userSpaceOnUse" xlink:href="#id0" x1="347.557" y1="244.218" x2="364.071" y2="264.921">
  </linearGradient>
  <linearGradient id="id3" gradientUnits="userSpaceOnUse" xlink:href="#id0" x1="147.92" y1="478.167" x2="231.938" y2="459.834">
  </linearGradient>
  <linearGradient id="id4" gradientUnits="userSpaceOnUse" xlink:href="#id0" x1="265.025" y1="293.653" x2="284.751" y2="313.93">
  </linearGradient>
  <linearGradient id="id5" gradientUnits="userSpaceOnUse" xlink:href="#id0" x1="699.509" y1="468.647" x2="657.241" y2="467.691">
  </linearGradient>
  <linearGradient id="id6" gradientUnits="userSpaceOnUse" x1="236.771" y1="555.289" x2="473.573" y2="270.117">
   <stop offset="0" style="stop-opacity:1; stop-color:#163320"/>
   <stop offset="1" style="stop-opacity:1; stop-color:#388547"/>
  </linearGradient>
  <linearGradient id="id7" gradientUnits="userSpaceOnUse" x1="130.08" y1="60.6023" x2="684.283" y2="767.153">
   <stop offset="0" style="stop-opacity:1; stop-color:#BA601E"/>
   <stop offset="0.301961" style="stop-opacity:1; stop-color:bisque"/>
   <stop offset="0.588235" style="stop-opacity:1; stop-color:#BA770B"/>
   <stop offset="1" style="stop-opacity:1; stop-color:#FCD08E"/>
  </linearGradient>
  <linearGradient id="id8" gradientUnits="userSpaceOnUse" xlink:href="#id0" x1="400.801" y1="427.755" x2="466.272" y2="366.373">
  </linearGradient>
  <linearGradient id="id9" gradientUnits="userSpaceOnUse" xlink:href="#id6" x1="165.76" y1="615.356" x2="333.677" y2="413.132">
  </linearGradient>
  <linearGradient id="id10" gradientUnits="userSpaceOnUse" xlink:href="#id6" x1="1892.47" y1="176.106" x2="1929.2" y2="131.873">
  </linearGradient>
  <linearGradient id="id11" gradientUnits="userSpaceOnUse" xlink:href="#id0" x1="599.444" y1="296.412" x2="585.102" y2="311.17">
  </linearGradient>
  <linearGradient id="id12" gradientUnits="userSpaceOnUse" xlink:href="#id0" x1="512.776" y1="254.252" x2="509.918" y2="254.886">
  </linearGradient>
  <linearGradient id="id13" gradientUnits="userSpaceOnUse" xlink:href="#id7" x1="134.591" y1="28.6227" x2="712.937" y2="765.958">
  </linearGradient>
  <linearGradient id="id14" gradientUnits="userSpaceOnUse" x1="1871.4" y1="102.138" x2="1815.66" y2="176.06">
   <stop offset="0" style="stop-opacity:1; stop-color:#B0CB1F"/>
   <stop offset="1" style="stop-opacity:1; stop-color:#4EAE3B"/>
  </linearGradient>
  <linearGradient id="id15" gradientUnits="userSpaceOnUse" xlink:href="#id0" x1="661.642" y1="376.74" x2="644.753" y2="391.488">
  </linearGradient>
  <linearGradient id="id16" gradientUnits="userSpaceOnUse" xlink:href="#id14" x1="438.455" y1="218.037" x2="201.996" y2="531.66">
  </linearGradient>
  <linearGradient id="id17" gradientUnits="objectBoundingBox" xlink:href="#id6" x1="37.2591%" y1="210.802%" x2="62.7405%" y2="0%">
  </linearGradient>
 </defs>
 <g id="Layer_x0020_1">
  <metadata id="CorelCorpID_0Corel-Layer"/>
  <g id="_830238880">
   <g>
    <g>
     <path class="fil0" d="M1821 84c0,-1 0,-1 0,-1 0,0 0,0 0,0 0,1 0,1 0,1 0,0 0,0 0,0 0,0 0,0 0,1 -1,0 -1,0 -1,0 0,0 0,0 0,0 0,0 0,1 0,1 0,0 0,0 0,0 0,0 0,0 0,0 0,1 0,1 -1,1 0,0 0,0 0,0 0,0 0,0 0,0 0,1 0,1 0,1 0,0 0,0 0,0 0,0 0,0 0,1 0,0 0,0 -1,0 0,0 0,0 0,0 0,0 0,1 0,1 0,0 0,0 0,0 0,0 0,0 0,0 0,1 0,1 0,1 0,0 0,0 0,0 -1,0 -1,0 -1,0 0,1 0,1 0,1 0,0 0,0 0,0 0,0 0,0 0,1 0,0 0,0 0,0 0,0 0,0 0,0 0,0 -1,1 -1,1 0,0 0,0 0,0 0,0 0,0 0,0 0,1 0,1 0,1 0,0 0,0 0,0 0,0 0,0 0,0 0,1 0,1 0,1 -1,0 -1,0 -1,0 0,0 0,0 0,1 0,0 0,0 0,0 0,0 0,0 0,0 0,0 0,1 0,1 0,0 0,0 0,0 0,0 0,0 -1,0 0,1 0,1 0,1 0,0 0,0 0,0 0,0 0,0 0,1 0,0 0,0 0,0 0,0 0,0 0,0 0,0 0,1 0,1 0,0 0,0 0,0 -1,0 -1,0 -1,0 0,1 0,1 0,1 0,0 0,0 0,0 0,0 0,0 0,0 0,1 0,1 0,1 0,0 0,0 0,0 0,0 0,0 0,1 0,0 0,0 -1,0 0,0 0,0 0,0 0,0 0,1 0,1 0,0 0,0 0,0 0,0 0,0 0,0 0,1 0,1 0,1 0,0 0,0 0,0 0,0 0,0 0,1 0,0 0,0 0,0 0,0 -1,0 -1,0 0,0 0,1 0,1 0,0 0,0 0,0 0,0 0,0 0,0 0,1 0,1 0,1 0,0 0,0 0,0 0,0 0,0 0,1 0,0 0,0 0,0 0,0 0,0 0,0 0,0 0,1 -1,1 0,0 0,0 0,0 0,0 0,0 0,0 0,1 0,1 0,1 0,0 0,0 0,0 0,0 0,0 0,1 0,0 0,0 0,0 0,0 0,0 0,0 0,0 0,1 0,1 0,0 0,0 0,0 0,0 0,0 0,0 0,1 0,1 0,1 -1,0 -1,0 -1,0 0,0 0,1 0,1 0,0 0,0 0,0 0,0 0,0 0,0 0,1 0,1 0,1 0,0 0,0 0,0 0,0 0,0 0,1 0,0 0,0 0,0 0,0 0,0 0,0 0,0 0,1 0,1 0,0 0,0 0,0 0,0 0,0 0,0 0,1 0,1 0,1 0,0 0,0 0,0 0,0 0,0 0,1 0,0 -1,0 -1,0 0,0 0,0 0,0 0,1 0,1 0,1 0,0 0,0 0,0 0,0 0,0 0,1 0,0 0,0 0,0 0,0 0,0 0,0 0,0 0,1 0,1 0,0 0,0 0,0 0,0 0,0 0,0 0,1 0,1 0,1 0,0 0,0 0,0 0,0 0,1 0,1l0 0c0,0 0,0 0,0 0,0 0,0 0,0 0,1 0,1 0,1 0,0 0,0 0,0 0,0 0,0 0,1 0,0 0,0 0,0 0,0 0,0 0,0 0,1 0,1 0,1 0,0 0,0 0,0 0,0 0,0 0,1 0,0 0,0 0,0 0,0 0,0 0,0 0,1 0,1 0,1 0,0 0,0 0,0 0,0 0,0 0,1 0,0 0,0 0,0 0,0 0,0 0,0 0,1 0,1 0,1 0,0 0,0 0,0 0,0 0,0 0,1 0,0 0,0 0,0 0,0 0,0 0,0 0,1 0,1 0,1 0,0 0,0 0,0 0,0 0,0 0,1 0,0 0,0 0,0 0,0 0,0 0,0 0,1 0,1 0,1 0,0 0,0 0,0 0,0 0,0 0,1 1,0 1,0 1,0 0,0 0,0 0,0 0,1 0,1 0,1 0,0 0,0 0,0 0,0 0,1 0,1 0,0 0,0 0,0 0,0 0,0 0,0 0,1 0,1 0,1 0,0 0,0 0,0 0,0 0,1 0,1 0,0 0,0 0,0 0,0 0,0 0,1 0,0 0,0 1,0 0,0 0,0 0,0 0,1 0,1 0,1 0,0 0,0 0,0 0,0 0,1 0,1 0,0 0,0 0,0 0,0 0,0 0,0 0,1 0,1 0,1 0,0 0,0 0,0 0,0 1,1 1,1 0,0 0,0 0,0 0,0 0,0 0,1 0,0 0,0 0,0 0,0 0,0 0,0 0,1 0,1 0,1 0,0 0,0 0,0 1,0 1,1 1,1 0,0 0,0 0,0 0,0 0,0 0,1 0,0 0,0 0,0 0,0 0,0 0,0 0,1 0,1 1,1 0,0 0,0 0,0 0,0 0,1 0,1 0,0 0,0 0,0 0,0 0,0 0,1 0,0 1,0 1,0 0,0 0,0 0,1 0,0 0,0 0,0 0,0 0,0 0,0 0,1 0,1 1,1 0,0 0,0 0,0 0,0 0,1 0,1 0,0 0,0 0,0 0,0 1,0 1,1 0,0 0,0 0,0 0,0 0,0 0,1 0,0 0,0 1,0 0,0 0,0 0,0 0,1 0,1 0,1 0,0 1,0 1,0 0,1 0,1 0,1 0,0 0,0 0,0 0,0 1,1 1,1 0,0 0,0 0,0 0,0 0,1 1,1 0,0 0,0 0,0 0,0 0,1 1,1 0,0 0,0 0,0 0,0 0,1 0,1 1,0 1,0 1,0 0,0 0,1 1,1 0,0 0,0 0,0 0,0 0,0 0,0 0,0 1,1 1,1 0,0 0,0 0,0 1,0 1,1 1,1 1,0 1,0 1,0 0,1 1,1 1,1 0,0 1,0 1,1 0,0 1,0 1,0 1,0 1,1 2,1 0,0 1,0 1,1 1,0 2,0 2,0 2,1 3,1 4,2 3,0 6,1 9,1 2,1 5,1 7,1 3,1 6,1 9,2 0,0 0,0 1,0 0,0 1,1 1,1 1,0 1,0 1,0 0,1 1,1 1,1 0,0 0,0 0,0 1,1 1,1 1,1 0,0 0,0 0,0 1,1 1,1 1,1 0,0 0,0 0,0 0,1 1,1 1,1 0,0 0,0 0,0 0,1 0,1 0,1 0,0 0,0 0,0 1,0 1,1 1,1 0,0 0,0 0,0 0,0 0,0 0,1 0,0 0,0 0,0 0,0 1,0 1,0 0,1 0,1 0,1 0,0 0,0 0,0 0,0 0,1 0,1 0,0 0,0 0,0 0,0 0,0 0,1 0,0 1,0 1,0 0,0 0,0 0,0 0,1 0,1 0,1 0,0 0,0 0,0 0,0 0,1 0,1 0,0 0,0 0,0 0,0 0,0 0,1 0,0 0,0 0,0 0,0 0,0 0,0 0,0 0,1 0,1 0,0 1,0 1,0 0,0 0,0 0,1 0,0 0,0 0,0 0,0 0,0 0,0 0,1 0,1 0,1l0 0 1 0c0,0 0,0 0,0 0,0 0,-1 0,-1 0,0 0,0 0,0 0,0 0,0 0,-1 0,0 0,0 0,0 0,0 0,0 0,0 0,0 0,-1 0,-1 0,0 0,0 0,0 0,0 0,0 0,-1 0,0 0,0 0,0 0,0 0,0 0,0 0,-1 0,-1 0,-1 0,0 0,0 -1,0 0,0 0,0 0,-1 0,0 0,0 0,0 0,0 0,0 0,0 0,-1 0,-1 0,-1 0,0 0,0 0,0 0,0 0,-1 0,-1 0,0 0,0 0,0 0,0 0,0 0,-1 0,0 0,0 -1,0 0,0 0,0 0,0 0,-1 0,-1 0,-1 0,0 0,0 0,0 0,0 0,-1 0,-1 0,0 0,0 0,0 0,0 0,0 0,-1 -1,0 -1,0 -1,0 0,0 0,0 0,0 0,-1 0,-1 0,-1 0,0 0,0 0,0 0,0 0,-1 0,-1 -1,0 -1,0 -1,0 0,0 0,0 0,-1 0,0 0,0 0,0 0,0 0,0 0,0 0,-1 -1,-1 -1,-1 0,0 0,0 0,0 0,-1 0,-1 0,-1 0,0 0,0 0,0 0,0 -1,-1 -1,-1 0,0 0,0 0,0 0,0 0,0 0,-1 0,0 0,0 -1,0 0,0 0,0 0,-1 0,0 0,0 0,0 0,0 0,0 0,0 -1,-1 -1,-1 -1,-1 0,0 0,0 0,0 0,-1 0,-1 -1,-1 0,0 0,0 0,0 0,0 0,-1 0,-1 0,0 -1,0 -1,0 0,0 0,-1 0,-1 0,0 0,0 -1,0 0,0 0,-1 0,-1 0,0 0,0 0,0 -1,0 -1,0 -1,-1l0 0c0,0 0,0 0,0 -1,0 -1,0 -1,-1 0,0 0,0 0,0 -1,0 -1,0 -1,-1 0,0 0,0 0,0 -1,0 -1,0 -1,-1 0,0 0,0 0,0 -1,0 -1,0 -1,-1 0,0 0,0 0,0 -1,0 -1,0 -1,-1 0,0 0,0 0,0 -1,0 -1,0 -1,-1 0,0 0,0 0,0 -1,0 -1,0 -1,-1 0,0 0,0 -1,0 0,0 0,0 0,-1 0,0 0,0 -1,0 0,0 0,0 0,-1 0,0 0,0 -1,0l0 -1 -1 0 0 -1 -1 0 0 -1c0,0 -1,0 -1,0 0,0 0,0 0,-1 0,0 -1,0 -1,0 0,0 0,0 0,-1 -1,0 -1,0 -1,0 0,0 0,0 0,-1 -1,0 -1,0 -1,0 0,0 0,0 0,-1 -1,0 -1,0 -1,0l0 0 0 -1c-1,0 -1,0 -1,0 0,0 0,0 0,-1 -1,0 -1,0 -1,0 0,0 0,0 0,-1 -1,0 -1,0 -1,0 0,0 0,0 0,-1 -1,0 -1,0 -1,0 0,0 0,0 0,-1 -1,0 -1,0 -1,0 0,0 0,0 0,0 -1,-1 -1,-1 -1,-1 0,0 0,0 0,0 0,-1 -1,-1 -1,-1 0,0 0,0 0,0 0,-1 0,-1 -1,-1 0,0 0,0 0,0 0,-1 0,-1 0,-1 -1,0 -1,0 -1,0 0,0 0,-1 0,-1 0,0 0,0 -1,0 0,0 0,-1 0,-1 0,0 0,0 0,0 0,0 -1,-1 -1,-1 0,0 0,0 0,0 0,0 0,0 0,-1 0,0 -1,0 -1,0 0,0 0,0 0,-1 0,0 0,0 0,0 0,0 0,0 -1,0 0,-1 0,-1 0,-1 0,0 0,0 0,0 0,0 0,-1 0,-1 -1,0 -1,0 -1,0 0,0 0,-1 0,-1 0,0 0,0 0,0 0,0 0,0 0,-1 -1,0 -1,0 -1,0 0,0 0,0 0,0 0,-1 0,-1 0,-1 0,0 0,0 0,0 -1,0 -1,-1 -1,-1 0,0 0,0 0,0 0,0 0,-1 0,-1 0,0 0,0 0,0 0,0 0,0 0,-1 -1,0 -1,0 -1,0 0,0 0,0 0,0 0,-1 0,-1 0,-1 0,0 0,0 0,0 0,0 0,-1 0,-1 0,0 -1,0 -1,0 0,0 0,0 0,-1 0,0 0,0 0,0 0,0 0,0 0,0 0,-1 0,-1 0,-1 0,0 0,0 0,0 0,0 0,-1 0,-1 -1,0 -1,0 -1,0 0,0 0,0 0,-1 0,0 0,0 0,0 0,0 0,0 0,0 0,0 0,-1 0,-1 0,0 0,0 0,0 0,0 0,0 0,-1 0,0 0,0 0,0 0,0 -1,0 -1,0 0,-1 0,-1 0,-1 0,0 0,0 0,0 0,0 0,-1 0,-1 0,0 0,0 0,0 0,0 0,0 0,-1 0,0 0,0 0,0 0,0 0,0 0,0 0,0 0,-1 0,-1 0,0 0,0 0,0 0,0 0,0 0,-1 0,0 0,0 -1,0 0,0 0,0 0,0 0,-1 0,-1 0,-1 0,0 0,0 0,0 0,0 0,0 0,0 0,0 0,0 0,1 0,0 1,0 1,0 0,0 0,0 0,0 0,1 0,1 0,1 0,0 0,0 0,0 0,0 0,1 0,1 0,0 0,0 0,0 0,0 0,0 0,1 0,0 0,0 1,0 0,0 0,0 0,0 0,1 0,1 0,1 0,0 0,0 0,0 0,0 0,1 0,1 0,0 0,0 0,0 0,0 1,0 1,1 0,0 0,0 0,0 0,0 0,0 0,0 0,1 0,1 0,1 0,0 0,0 0,0 1,0 1,1 1,1 0,0 0,0 0,0 0,0 0,0 0,1 0,0 0,0 0,0 0,0 1,0 1,1 0,0 0,0 0,0 0,0 0,0 0,0 0,1 0,1 0,1 0,0 1,0 1,0 0,0 0,1 0,1 0,0 0,0 0,0 0,0 0,1 0,1 1,0 1,0 1,0 0,0 0,0 0,1 0,0 0,0 0,0 0,0 1,0 1,0 0,1 0,1 0,1 0,0 0,0 0,0 0,1 0,1 1,1 0,0 0,0 0,0 0,0 0,1 0,1 0,0 0,0 1,0 0,0 0,1 0,1 0,0 0,0 0,0 0,0 0,0 1,1 0,0 0,0 0,0 0,0 0,0 0,1 0,0 0,0 1,0 0,0 0,0 0,0 0,1 0,1 0,1 0,0 1,0 1,0 0,1 0,1 0,1 0,0 0,0 1,0 0,1 0,1 0,1 0,0 0,0 0,0 0,0 1,1 1,1 0,0 0,0 0,0 0,0 0,1 1,1 0,0 0,0 0,0 0,0 0,1 0,1 1,0 1,0 1,0 0,0 0,1 0,1 0,0 1,0 1,0 0,0 0,0 0,1 0,0 1,0 1,0 0,0 0,0 0,1 0,0 0,0 1,0 0,0 0,0 0,1 0,0 0,0 1,0 0,0 0,0 0,1 0,0 0,0 1,0 0,0 0,0 0,1 0,0 0,0 1,0 0,0 0,0 0,1 0,0 0,0 1,0 0,0 0,0 0,1 0,0 1,0 1,0 0,0 0,0 0,1 0,0 1,0 1,0 0,0 0,0 0,1 1,0 1,0 1,0 0,0 0,0 1,1 0,0 0,0 0,0 0,0 1,0 1,1 0,0 0,0 0,0 1,0 1,0 1,1 0,0 0,0 1,0 0,0 0,1 0,1 0,0 1,0 1,0 0,0 0,1 0,1 1,0 1,0 1,0 0,0 1,1 1,1 0,0 0,0 0,0 1,0 1,1 1,1 0,0 1,0 1,0 0,1 0,1 1,1 0,0 0,0 0,0 0,1 1,1 1,1 0,0 0,0 0,0 0,0 0,0 1,1 0,0 0,0 0,0 1,0 1,0 1,1 0,0 0,0 1,0 0,0 0,0 0,1 0,0 0,0 1,0 0,0 0,0 0,1 0,0 0,0 1,0 0,0 0,0 0,1 0,0 0,0 1,0 0,0 0,0 0,1 0,0 0,0 0,0 0,0 1,0 1,0 0,1 0,1 0,1 0,0 0,0 0,0 1,1 1,1 1,1 0,0 0,0 0,0 0,0 0,1 0,1 0,0 1,0 1,0 0,0 0,1 0,1 0,0 0,0 0,0 0,0 0,0 0,1 1,0 1,0 1,0 0,0 0,0 0,0 0,1 0,1 0,1 0,0 0,0 0,0 0,0 0,1 0,1 0,0 1,0 1,0 0,0 0,0 0,1 0,0 0,0 0,0 0,0 0,0 0,0 0,0 0,1 0,1 0,0 0,-1 0,-1 0,0 0,0 0,0 0,0 0,0 0,0 0,0 0,-1 1,-1 0,0 0,0 0,0 0,0 0,0 0,0 0,-1 0,-1 0,-1 0,0 0,0 0,0 0,0 0,0 0,-1 0,0 0,0 0,0 0,0 0,0 1,0 0,0 0,0 0,-1 0,0 0,0 0,0 0,0 0,0 0,0 0,0 0,-1 0,-1 0,0 0,0 0,0 0,0 0,0 0,0 0,-1 0,-1 0,-1 0,0 0,0 0,0 1,0 1,0 1,-1 0,0 0,0 0,0 0,0 0,0 0,0 0,0 0,-1 0,-1 0,0 0,0 0,0 0,0 0,0 0,0 0,-1 0,-1 0,-1 0,0 0,0 0,0 0,0 0,0 0,-1 0,0 0,0 1,0 0,0 0,0 0,0 0,0 0,-1 0,-1 0,0 0,0 0,0 0,0 0,0 0,0 0,-1 0,-1 0,-1 0,0 0,0 0,0 0,0 0,0 0,-1 0,0 0,0 0,0 0,0 0,0 0,0 0,-1 0,-1 0,-1 0,0 0,0 0,0 0,0 0,0 0,-1 0,0 0,0 0,0 1,0 1,0 1,0 0,0 0,-1 0,-1 0,0 0,0 0,0 0,0 0,0 0,0 0,-1 0,-1 0,-1 0,0 0,0 0,0 0,0 0,0 0,-1 0,0 0,0 0,0 0,0 0,0 0,0 0,-1 0,-1 0,-1 0,0 0,0 0,0 0,0 0,0 0,-1 0,0 0,0 0,0 0,0 0,0 0,0 0,0 0,-1 0,-1 0,0 0,0 0,0 0,0 0,0 0,0 0,0 0,0 0,-1 0,0 0,0 0,0 0,0 0,0 0,0 0,0 0,-1 0,-1 0,0 0,0 0,0 0,0 0,0 0,-1 0,0 0,0 0,0 0,0 0,0 0,0 0,0 0,-1 0,-1 0,0 0,0 0,0 0,0 0,0 0,0 0,-1 0,-1 0,-1 0,0 0,0 0,0 0,0 0,-1 0,-1 0,0 0,0 0,0 0,0 0,0 0,0 0,-1 0,-1 0,-1 0,0 0,0 0,0 0,0 0,-1 0,-1 0,0 0,0 0,0 0,0 0,0 0,-1 0,0 0,0 0,0 0,0 0,0 0,0 0,0 0,-1 0,-1 0,0 0,0 0,0 0,0 -1,0 -1,-1 0,0 0,0 0,0 0,0 0,0 0,0 0,-1 0,-1 0,-1 0,0 0,0 0,0 0,0 0,0 0,-1 0,0 0,0 0,0 0,0 0,0 0,0 0,-1 0,-1 0,-1 0,0 0,0 0,0 0,0 0,-1 0,-1 -1,0 -1,0 -1,0 0,0 0,0 0,-1 0,0 0,0 0,0 0,0 0,0 0,0 0,-1 0,-1 0,-1 0,0 0,0 0,0 0,0 0,-1 0,-1 0,0 -1,0 -1,0 0,0 0,0 0,-1 0,0 0,0 0,0 0,0 0,0 0,0 0,-1 0,-1 0,-1 0,0 0,0 -1,0 0,0 0,-1 0,-1 0,0 0,0 0,0 0,0 0,0 0,0 0,0 0,0 0,-1 0,0 0,0 0,0 -1,0 -1,0 -1,0 0,-1 0,-1 0,-1 0,0 0,0 0,0 0,-1 0,-1 -1,-1 0,0 0,0 0,0 0,0 0,-1 0,-1 0,0 0,0 0,0 -1,0 -1,0 -1,-1 0,0 0,0 0,0 0,0 0,0 0,-1 -1,0 -1,0 -1,0 0,0 0,0 0,-1 0,0 -1,0 -1,0 0,0 0,0 0,0 0,-1 0,-1 0,-1 -1,0 -1,0 -1,0 0,-1 0,-1 0,-1 -1,0 -1,0 -1,0 0,-1 0,-1 0,-1 -1,0 -1,0 -1,0 0,-1 0,-1 0,-1 -1,0 -1,0 -1,0 0,-1 0,-1 -1,-1 0,0 0,0 0,0 0,-1 -1,-1 -1,-1 0,0 0,0 0,0 -1,-1 -1,-1 -1,-1 0,0 -1,0 -1,-1 0,0 0,0 0,0 -1,0 -1,0 -1,-1 0,0 -1,0 -1,0 0,0 0,-1 -1,-1 0,0 0,0 -1,0 0,0 0,-1 0,-1 0,0 -1,0 -1,0 0,0 0,0 0,0 -1,-1 -1,-1 -1,-1 0,0 -1,0 -1,-1 0,0 -1,0 -1,0 0,0 -1,0 -1,-1 0,0 0,0 -1,0 0,0 0,-1 -1,-1 0,0 0,0 -1,0 0,-1 0,-1 -1,-1 0,0 0,0 -1,-1 0,0 0,0 -1,0 0,0 0,-1 -1,-1 0,0 0,0 -1,0 0,-1 0,-1 0,-1 -1,0 -1,0 -1,0 -1,-1 -1,-1 -1,-1 -1,0 -1,0 -1,-1 0,0 -1,0 -1,0 0,0 -1,-1 -1,-1 0,0 0,0 -1,0 0,0 0,-1 0,-1 -1,0 -1,0 -1,0 0,-1 -1,-1 -1,-1 0,0 0,0 -1,0 0,-1 0,-1 0,-1 0,0 0,0 0,0 -1,0 -1,0 -1,-1 0,0 0,0 -1,0 0,0 0,0 0,-1 0,0 -1,0 -1,0 0,0 0,0 0,-1 -1,0 -1,0 -1,0 0,0 0,0 -1,-1 0,0 0,0 0,0 0,0 0,0 -1,-1 0,0 0,0 0,0 0,0 0,0 0,-1 -1,0 -1,0 -1,0 0,0 0,0 0,-1 0,0 -1,0 -1,0 0,0 0,0 0,0 0,-1 0,-1 -1,-1 0,0 0,0 0,0 0,-1 0,-1 0,-1 0,0 -1,0 -1,0 0,-1 0,-1 0,-1 0,0 0,0 0,0 0,0 0,-1 -1,-1 0,0 0,0 0,0 0,0 0,0 0,-1 0,0 0,0 0,0 -1,0 -1,0 -1,-1 0,0 0,0 0,0 0,0 0,0 0,0 0,-1 0,-1 0,-1 -1,0 -1,0 -1,0 0,0 0,-1 0,-1 0,0 0,0 0,0 0,0 0,0 0,-1 0,0 0,0 0,0 -1,0 -1,0 -1,0 0,-1 0,-1 0,-1 0,0 0,0 0,0 0,0 0,-1 0,-1 0,0 0,0 0,0 0,0 0,0 0,-1 0,0 -1,0 -1,0 0,0 0,0 0,0z"/>
     <path class="fil1" d="M1887 185c0,0 1,0 1,-1 0,0 0,0 0,0 1,0 1,0 1,0 0,0 1,0 1,-1 0,0 1,0 1,0 0,0 1,0 1,0 2,0 4,0 7,0 2,0 4,0 6,0 2,0 4,0 7,-1 1,0 2,0 3,0 1,0 1,0 2,0 0,0 1,-1 1,-1 1,0 1,0 1,0 1,0 1,0 1,0 1,-1 1,-1 1,-1 1,0 1,0 1,0 0,0 1,0 1,0 0,-1 0,-1 0,-1 1,0 1,0 1,0 0,0 0,0 1,-1 0,0 0,0 0,0 0,0 0,0 0,0 0,0 0,0 1,0 0,0 0,0 0,-1 0,0 0,0 1,0 0,0 0,0 0,0 0,0 0,0 0,0 1,-1 1,-1 1,-1 0,0 0,0 0,0 0,0 1,0 1,0 0,-1 0,-1 0,-1 0,0 0,0 0,0 0,0 1,0 1,0 0,-1 0,-1 0,-1 0,0 0,0 0,0 0,0 1,0 1,0 0,-1 0,-1 0,-1 0,0 0,0 0,0 0,0 0,0 1,0 0,-1 0,-1 0,-1 0,0 0,0 0,0 0,0 0,0 0,0 0,0 1,-1 1,-1 0,0 0,0 0,0 0,0 0,0 0,0 0,0 0,-1 0,-1 1,0 1,0 1,0 0,0 0,0 0,0 0,0 0,-1 0,-1 0,0 0,0 0,0 0,0 0,0 1,0 0,0 0,0 0,-1 0,0 0,0 0,0 0,0 0,0 0,0 0,0 0,0 0,-1 0,0 0,0 1,0 0,0 0,0 0,0 0,0 0,0 0,-1 0,0 0,0 0,0 0,0 0,0 0,0 0,0 0,0 0,0 1,-1 1,-1 1,-1 0,0 0,0 0,0 0,0 0,0 0,0 0,-1 0,-1 0,-1 0,0 0,0 0,0 0,0 0,0 0,0 0,0 1,-1 1,-1 0,0 0,0 0,0 0,0 0,0 0,0 0,0 0,-1 0,-1 0,0 0,0 0,0 0,0 0,0 0,0 0,0 0,0 0,-1 0,0 0,0 0,0 1,0 1,0 1,0 0,0 0,0 0,-1 0,0 0,0 0,0 0,0 0,0 0,0 0,0 0,0 0,-1 0,0 0,0 0,0 0,0 0,0 0,0 0,0 0,0 0,0 0,-1 0,-1 0,-1 1,0 1,0 1,0 0,0 0,0 0,0 0,-1 0,-1 0,-1 0,0 0,0 0,0 0,0 0,0 0,0 0,0 0,-1 0,-1 0,0 0,0 0,0 0,0 0,0 0,0 0,0 0,-1 0,-1 0,0 0,0 0,0 0,0 0,0 0,0 0,0 0,0 1,-1 0,0 0,0 0,0 0,0 0,0 0,0 0,0 0,0 0,0 0,-1 0,-1 0,-1 0,0 0,0 0,0 0,0 0,0 0,0 0,-1 0,-1 0,-1 0,0 0,0 0,0 0,0 0,0 0,0 0,0 0,-1 0,-1 0,0 0,0 0,0 0,0 0,0 0,0 0,0 0,-1 0,-1 0,0 0,0 0,0 0,0 0,0 0,0 0,0 0,0 0,-1 0,0 0,0 0,0 0,0 0,0 0,0 0,0 0,0 0,-1 0,0 0,0 0,0l0 0c1,0 1,0 1,0 0,0 0,0 0,0 0,-1 0,-1 0,-1 0,0 0,0 0,0 0,0 0,0 0,0 0,0 0,-1 0,-1 0,0 0,0 0,0 0,0 0,0 0,0 0,0 0,-1 0,-1 0,0 0,0 0,0 0,0 0,0 0,0 0,0 0,0 0,-1 0,0 0,0 0,0 0,0 0,0 0,0 0,0 0,0 0,-1 0,0 0,0 0,0 0,0 0,0 0,0 0,0 0,0 0,0 0,-1 0,-1 0,-1 0,0 0,0 0,0 0,0 0,0 0,0 0,0 0,-1 0,-1 0,0 0,0 0,0 0,0 0,0 0,0 0,0 0,-1 0,-1 0,0 0,0 0,0 0,0 0,0 0,0 0,0 0,0 0,-1 0,0 0,0 0,0 0,0 0,0 0,0 0,0 0,0 0,0 0,-1 0,-1 0,-1 0,0 0,0 0,0 0,0 0,0 -1,0 0,-1 0,-1 0,-1 0,0 0,0 0,0 0,0 0,0 0,0 0,0 0,-1 0,-1 0,0 0,0 0,0 0,0 0,0 0,0 0,0 0,0 0,-1 0,0 0,0 0,0 0,0 0,0 0,0 0,0 0,0 0,-1 0,0 0,0 0,0 0,0 0,0 0,0 0,0 0,0 0,0 0,-1 0,-1 0,-1 0,0 0,0 0,0 0,0 0,0 0,0 0,0 0,-1 0,-1 0,0 0,0 0,0 0,0 0,0 0,0 0,0 0,-1 0,-1 0,0 0,0 0,0 0,0 0,0 0,0 0,0 0,0 0,-1 0,0 0,0 0,0 0,0 -1,0 -1,0 0,0 0,0 0,0 0,-1 0,-1 0,-1 0,0 0,0 0,0 0,0 0,0 0,0 0,0 0,-1 0,-1 0,0 0,0 0,0 0,0 0,0 0,0 0,0 0,-1 0,-1 0,0 0,0 0,0 0,0 0,0 0,0 0,0 0,0 0,-1 0,0 0,0 0,0 0,0 0,0 0,0 0,0 0,0 0,0 0,-1 0,-1 0,-1 -1,0 -1,0 -1,0 0,0 0,0 0,0 0,-1 0,-1 0,-1 0,0 0,0 0,0 0,0 0,0 0,0 0,0 0,-1 0,-1 0,0 0,0 0,0 0,0 0,0 0,0 0,0 0,0 0,-1 0,0 0,0 0,0 0,0 0,0 0,0 0,0 0,0 0,0 0,-1 0,-1 0,-1 0,0 -1,0 -1,0 0,0 0,0 0,0 0,-1 0,-1 0,-1 0,0 0,0 0,0 0,0 0,0 0,0 0,0 0,-1 0,-1 0,0 0,0 0,0 0,0 0,0 0,0 0,0 0,0 0,-1 0,0 0,0 0,0 0,0 0,0 0,0 0,0 0,0 0,0 0,-1 -1,-1 -1,-1 0,0 0,0 0,0 0,0 0,0 0,0 0,-1 0,-1 0,-1 0,0 0,0 0,0 0,0 0,0 0,0 0,0 0,-1 0,-1 0,0 0,0 0,0 0,0 0,0 0,0 0,0 0,0 0,-1 0,0 0,0 0,0 0,0 -1,0 -1,0 0,0 0,0 0,0 0,-1 0,-1 0,-1 0,0 0,0 0,0 0,0 0,0 0,0 0,0 0,0 0,1 0,0 0,0 0,0 0,0 0,0 0,0 0,0 -1,0 -1,0 0,1 0,1 0,1 0,0 0,0 0,0 0,0 0,0 0,0 0,1 0,1 0,1 0,0 0,0 -1,0 0,0 0,0 0,0 0,1 0,1 0,1 0,0 0,0 0,0 0,0 0,0 0,0 0,0 -1,1 -1,1 0,0 0,0 0,0 0,0 0,0 0,0 0,0 0,1 0,1 0,0 -1,0 -1,0 0,0 0,0 0,0 0,0 0,1 0,1 0,0 0,0 -1,0 0,0 0,0 0,0 0,0 0,1 0,1 0,0 0,0 -1,0 0,0 0,0 0,0 0,0 0,0 0,1 0,0 0,0 -1,0 0,0 0,0 0,0 0,0 0,0 0,1 0,0 -1,0 -1,0 0,0 0,0 0,0 0,0 0,0 -1,1 0,0 0,0 0,0 0,0 0,0 0,0 -1,0 -1,0 -1,1 0,0 0,0 0,0 -1,0 -1,0 -1,0 0,0 0,0 0,1 -1,0 -1,0 -1,0 0,0 0,0 0,0 -1,0 -1,0 -1,1 0,0 0,0 -1,0 0,0 0,0 0,0 0,0 0,0 0,0 0,0 -1,0 -1,1 0,0 0,0 -1,0 0,0 0,0 0,0 0,0 -1,0 -1,1 0,0 0,0 -1,0 0,0 0,0 0,0 -1,0 -1,1 -1,1 0,0 -1,0 -1,0 0,0 0,0 -1,0 0,0 0,1 0,1 -1,0 -1,0 -1,0 0,0 -1,0 -1,0 0,0 -1,1 -1,1 0,0 0,0 -1,0 0,0 0,0 -1,0 0,1 0,1 0,1 -1,0 -1,0 -1,0 0,0 -1,0 -1,0 0,1 -1,1 -1,1 0,0 0,0 -1,0 0,0 0,0 0,0 -1,1 -1,1 -1,1 -1,0 -1,0 -1,0 0,0 0,0 0,0 -1,0 -1,0 -1,1 0,0 0,0 0,0 -1,0 -1,0 -1,0 0,0 -1,0 -1,1 0,0 0,0 -1,0 0,0 0,0 0,0 0,0 -1,0 -1,1 0,0 0,0 0,0 -1,0 -1,0 -1,0 0,0 0,0 -1,1 0,0 0,0 0,0 0,0 0,0 -1,0 0,0 0,0 0,1 0,0 -1,0 -1,0 0,0 0,0 0,0 0,0 0,0 -1,1 0,0 0,0 0,0 0,0 0,0 -1,0 0,0 0,0 0,1 0,0 0,0 0,0 0,0 -1,0 -1,0 0,0 0,0 0,1 0,0 0,0 -1,0 0,0 0,0 0,0 0,0 0,0 0,1 0,0 0,0 -1,0 0,0 0,0 0,0 0,0 0,0 0,1 0,0 0,0 -1,0 0,0 0,0 0,0 0,0 0,0 0,0 0,1 0,1 0,1 0,0 -1,0 -1,0 0,0 0,0 0,0 0,1 0,1 0,1 0,0 0,0 0,0 -1,0 -1,0 -1,0 0,0 0,0 0,0 0,1 0,1 0,1 0,0 0,0 0,0 0,0 0,0 0,0 0,0 0,1 -1,1 0,0 0,0 0,0 0,0 0,0 0,0 0,0 0,1 0,1 0,0 0,0 0,0 0,0 0,0 0,0 -1,0 -1,1 -1,1 0,0 0,0 0,0 0,0 0,0 0,0 0,0 0,0 0,1 0,0 0,0 0,0 0,0 0,0 0,0 0,0 -1,0 -1,1 0,0 0,0 0,0 0,0 0,0 0,0 0,0 0,0 0,0 0,1 0,1 0,1 0,0 0,0 0,0 0,0 0,0 0,0 0,1 0,1 0,1 0,0 -1,0 -1,0 0,0 0,0 0,0 0,0 0,1 0,1 0,0 0,0 0,0 0,0 0,0 0,0 0,0 0,1 0,1 0,0 0,0 0,0 0,0 0,0 0,0 0,0 0,0 0,1 0,0 0,0 0,0 0,0 0,0 0,0 -1,0 -1,0 -1,1 0,0 0,0 0,0 0,0 0,0 0,0 0,0 0,0 0,0 0,1 0,1 0,1 0,0 0,0 0,0 0,0 0,0 0,0 0,1 0,1 0,1 0,0 0,0 0,0 0,0 0,0 0,0 0,0 0,1 0,1 0,0 0,0 0,0 0,0 0,0 0,0 0,0 0,0 0,1 0,0 0,0 0,0 0,0 0,0 0,0 0,0 0,0 0,0 0,0 0,0 0,1 0,0 0,0 0,0 0,0 0,0 0,0 -1,0 -1,0 -1,0 0,1 0,1 0,1 0,0 0,0 0,0 0,0 0,0 0,0 0,1 0,1 0,1 0,0 0,0 0,0 0,0 0,0 0,0 0,0 0,1 0,1 0,0 0,0 0,0 0,0 0,0 0,0 0,0 0,1 0,1 0,0 0,0 0,0 0,0 0,0 0,0 0,0 0,0 0,1 0,0 0,0 0,0 0,0 0,0 0,0 0,0 0,0 0,0 0,1 0,1 0,1 0,0 0,0 0,0 0,0 0,0 0,0 0,1 0,1 0,1 0,0 0,0 0,0 0,0 0,0 0,0 0,0 0,1 0,1 0,0 0,0 0,0 0,0 0,0 0,0 0,0 0,0 0,1 0,0 1,0 1,0 0,0 0,0 0,0 0,0 0,0 0,1 0,0 0,0 0,0 0,0 0,0 0,0 0,0 0,0 0,0 0,1 0,1 0,1 0,0 0,0 0,0 0,0 0,0 0,0 0,0 0,1 0,1 0,0 0,0 0,0 0,0 0,0 0,0 0,0 0,1 0,1 0,0 0,0 0,0 0,0 0,0 0,0 0,0 0,0 0,1 0,0 0,0 0,0 0,0 0,0 0,0 0,0 0,0 0,0 0,1 0,1 0,1 0,0 0,0 0,0 0,0 0,0 1,0 0,0 0,1 0,1 0,0 0,0 0,0 0,0 0,0 0,0 0,0 0,1 0,1 0,0 0,0 0,0 0,0 0,0 0,0 0,0 0,0 0,0 0,0 0,0 0,0 0,0 0,0 0,0 0,0 0,0 0,0 0,-1 0,-1 1,-1 0,0 0,0 0,0 0,0 0,0 0,0 0,0 0,-1 0,-1 0,0 0,0 0,0 0,0 0,0 0,0 1,0 1,-1 1,-1 0,0 0,0 0,0 0,0 0,0 0,0 0,0 0,-1 0,-1 1,0 1,0 1,0 0,0 0,0 0,0 0,0 0,0 0,-1 0,0 1,0 1,0 0,0 0,0 0,0 0,0 0,0 0,-1 0,0 1,0 1,0 0,0 0,0 0,0 0,0 0,0 0,-1 1,0 1,0 1,0 0,0 0,0 0,0 0,0 1,0 1,-1 0,0 0,0 0,0 0,0 1,0 1,0 0,0 0,0 0,-1 0,0 1,0 1,0 0,0 0,0 0,0 1,0 1,0 1,-1 0,0 0,0 1,0 0,0 0,0 0,0 0,0 0,0 0,0 0,0 1,0 1,-1 0,0 0,0 0,0 1,0 1,0 1,0 0,0 0,0 1,-1 0,0 0,0 0,0 0,0 1,0 1,0 0,0 0,0 0,-1 1,0 1,0 1,0 0,0 0,0 1,0 0,0 0,0 0,-1 0,0 0,0 1,0 0,0 0,0 0,0 0,0 1,0 1,-1 0,0 0,0 0,0 0,0 1,0 1,0 0,0 0,0 0,-1 0,0 1,0 1,0 0,0 0,0 0,0 0,0 1,0 1,-1 0,0 0,0 0,0 0,0 1,0 1,0 0,0 0,0 0,-1 0,0 1,0 1,0 0,0 0,0 0,0 0,0 1,0 1,-1 0,0 0,0 0,0 0,0 0,0 1,0 0,0 0,0 0,-1 0,0 0,0 1,0 0,0 0,0 0,0 0,0 0,0 0,-1 1,0 1,0 1,0 0,0 0,0 0,0 0,0 1,0 1,-1 0,0 0,0 0,0 0,0 0,0 0,0 1,0 1,0 1,-1 0,0 0,0 0,0 0,0 1,0 1,0 0,0 0,0 0,-1 0,0 0,0 0,0 1,0 1,0 1,0 0,0 0,0 0,-1 0,0 0,0 1,0 0,0 0,0 0,0 0,0 0,0 0,-1 0,0 1,0 1,0 0,0 0,0 0,0 0,0 0,0 0,0 0,-1 1,-1 1,-1 0,0 0,0 0,0 0,0 0,0 0,0 1,-1 1,-1 1,-1 0,0 0,0 0,0 0,0 0,0 0,0 0,-1 1,-1 1,-1 0,0 0,0 0,0 0,0 0,0 0,0 0,-1 1,-1 1,-1 0,0 0,0 0,0 0,0 0,0 0,0 0,0 0,-1 0,-1 1,0 1,0 1,0 0,0 0,0 0,0 0,0 0,-1 0,-1 0,0 1,0 1,0 0,0 0,0 0,0 0,0 0,-1 0,-1 0,0 0,0 0,0 1,0 1,0 1,0 0,0 0,-1 0,-1 0,0 0,0 0,0 0,0 0,0 0,0 1,0 1,0 1,-1 0,0 0,0 0,0 0,0 0,0 0,0 0,0 0,0 0,-1 0,0 1,0 1,0 0,0 0,0 0,0 0,0 0,0 0,-1 0,0 0,0 0,0 0,0 0,0 0,0 1,0 1,0 1,0 0,-1 0,-1 0,-1 0,0 0,0 0,0 0,0 0,0 0,0 0,-1 0,-1 0,-1 0,0 1,0 1,0 0,0 0,0 0,0 0,0 0,-1 0,-1 0,0 0,0 0,0 0,0 0,0 0,0 0,0 0,-1 0,-1 0,0 0,0 1,0 0,0 0,0 0,0 0,0 0,-1 0,-1 0,0 0,0 0,0 0,0 0,0 0,0 0,0 0,1 0,1 0,0 0,0 0,0 0,0 0,0 -1,0 0,0 0,1 0,1 0,0 0,0 0,0 0,0 0,0 0,0 0,0 0,0 0,1 0,0 0,0 0,0 0,0 0,0 0,0 0,0 0,0 0,1 0,0 0,0 0,0 0,0 -1,0 -1,0 0,0 0,0 0,1 0,0 0,0 0,0 0,0 0,0 0,0 0,0 0,0 0,0 0,1 0,1 0,1 0,0 0,0 0,0 0,0 -1,0 -1,0 0,1 0,1 0,1 0,0 0,0 0,0 0,0 0,0 0,0 0,0 0,1 0,1 0,0 0,0 0,0 0,0 0,0 -1,0 0,0 0,1 0,1 0,0 0,0 0,0 0,0 0,0 0,0 0,0 0,0 0,1 0,0 0,0 0,0 0,0 -1,0 -1,0 0,0 0,0 0,1 0,0 0,0 0,0 0,0 0,0 0,0 0,0 0,0 0,1 0,0 -1,0 -1,0 0,0 0,0 0,0 0,0 0,0 0,0 0,1 0,1 0,1 0,0 0,0 -1,0 0,0 0,0 0,0 0,1 0,1 0,1 0,0 0,0 0,0 0,0 0,0 -1,0 0,1 0,1 0,1 0,0 0,0 0,0 0,0 0,0 0,0 0,0 -1,1 -1,1 0,0 0,0 0,0 0,0 0,0 0,0 0,0 0,1 0,1 -1,0 -1,0 -1,0 0,0 0,0 0,0 0,0 0,1 0,1 0,0 -1,0 -1,0 0,0 0,0 0,0 0,0 0,1 0,1 0,0 -1,0 -1,0 0,0 0,0 0,0 0,0 0,0 0,1 -1,0 -1,0 -1,0 0,0 0,0 0,0 0,0 0,0 -1,1 0,0 0,0 0,0 0,0 0,0 0,0 0,0 -1,0 -1,1 0,0 0,0 0,0 0,0 0,0 -1,0 0,0 0,0 0,1 0,0 0,0 0,0 -1,0 -1,0 -1,0 0,0 0,0 0,1 0,0 -1,0 -1,0 0,0 0,0 0,0 0,0 0,0 -1,1 0,0 0,0 0,0 0,0 0,0 -1,0 0,0 0,0 0,1 0,0 0,0 0,0l-1 0 0 0c0,0 0,0 0,1 -1,0 -1,0 -1,0 0,0 0,0 0,0 0,0 -1,0 -1,1 0,0 0,0 0,0 0,0 -1,0 -1,0 0,0 0,0 0,1 0,0 -1,0 -1,0 0,0 0,0 0,0l-1 1 0 0 -1 0 0 1 -1 0 0 0c0,0 0,0 0,1 -1,0 -1,0 -1,0 0,0 0,0 0,0 -1,0 -1,0 -1,1 0,0 0,0 0,0 -1,0 -1,0 -1,0 0,0 0,0 0,1 0,0 -1,0 -1,0 0,0 0,0 0,0 0,0 -1,0 -1,0 0,1 0,1 0,1 0,0 0,0 -1,0 0,0 0,0 0,0 0,1 0,1 -1,1 0,0 0,0 0,0 0,0 0,0 0,0 -1,1 -1,1 -1,1 0,0 0,0 0,0l0 0c-1,0 -1,0 -1,0 0,1 0,1 0,1 0,0 0,0 -1,0 0,0 0,0 0,0 0,1 0,1 0,1 -1,0 -1,0 -1,0 0,0 0,0 0,0 0,1 0,1 0,1 -1,0 -1,0 -1,0 0,0 0,0 0,0 0,1 0,1 -1,1 0,0 0,0 0,0 0,0 0,0 0,0 0,1 0,1 0,1 -1,0 -1,0 -1,0 0,0 0,0 0,0 0,0 0,1 0,1 0,0 0,0 -1,0 0,0 0,0 0,0 0,0 0,1 0,1 0,0 0,0 0,0 0,0 -1,0 -1,0 0,0 0,1 0,1 0,0 0,0 0,0 0,0 0,0 0,0 0,0 0,0 -1,1 0,0 0,0 0,0 0,0 0,0 0,0 0,0 0,0 0,1 0,0 0,0 0,0 0,0 0,0 -1,0 0,0 0,0 0,1 0,0 0,0 0,0 0,0 0,0 0,0 0,0 0,0 0,0 0,1 0,1 0,1 0,0 -1,0 -1,0 0,0 0,0 0,0 0,1 0,1 0,1 0,0 0,0 0,0 0,0 0,0 0,0 0,0 0,1 0,1 0,0 0,0 0,0 -1,0 -1,0 -1,0 0,0 0,1 0,1 0,0 0,0 0,0 0,0 0,0 0,0 0,0 0,1 0,1 0,0 0,0 0,0 0,0 0,0 0,0 0,0 0,0 0,1 0,0 0,0 -1,0 0,0 0,0 0,0 0,0 0,0 0,0 0,1 0,1 0,1 0,0 0,0 0,0 0,0 0,0 0,0 0,1 0,1 0,1 0,0 0,0 0,0l1 0c0,0 0,0 0,0 0,0 0,0 0,-1 0,0 0,0 0,0 0,0 0,0 0,0 1,0 1,0 1,-1 0,0 0,0 0,0 0,0 0,0 0,0 0,0 0,0 0,-1 0,0 0,0 0,0 0,0 0,0 0,0 0,0 0,0 0,0 0,-1 0,-1 0,-1 1,0 1,0 1,0 0,0 0,0 0,0 0,-1 0,-1 0,-1 0,0 0,0 0,0 0,0 0,0 0,0 0,0 0,-1 0,-1 1,0 1,0 1,0 0,0 0,0 0,0 0,0 0,-1 0,-1 0,0 0,0 0,0 0,0 0,0 0,0 1,0 1,-1 1,-1 0,0 0,0 0,0 0,0 0,0 0,0 0,0 0,0 1,-1 0,0 0,0 0,0 0,0 0,0 0,0 0,0 0,0 1,-1 0,0 0,0 0,0 0,0 0,0 0,0zm-7 10l0 0z"/>
    </g>
    <path class="fil2" d="M1117 99l176 222 0 -154c0,-22 -3,-37 -9,-44 -9,-11 -23,-16 -43,-15l0 -9 119 0 0 9c-16,2 -26,4 -31,7 -5,4 -9,9 -12,16 -3,7 -4,19 -4,36l0 298 -9 0 -242 -299 0 229c0,21 4,35 14,42 9,7 20,11 32,11l9 0 0 9 -128 0 0 -9c20,0 34,-4 42,-12 7,-8 11,-22 11,-41l0 -254 -7 -9c-8,-10 -14,-16 -20,-19 -6,-3 -14,-5 -25,-5l0 -9 127 0z"/>
    <path id="1" class="fil2" d="M1527 420c-30,27 -57,40 -81,40 -14,0 -26,-4 -35,-14 -9,-9 -14,-20 -14,-34 0,-19 8,-36 24,-51 16,-15 52,-35 106,-60l0 -25c0,-18 -1,-30 -3,-35 -2,-5 -6,-9 -11,-13 -6,-3 -12,-5 -19,-5 -12,0 -21,3 -29,8 -4,3 -7,7 -7,11 0,3 3,8 8,13 6,8 10,15 10,22 0,9 -3,16 -10,22 -6,6 -15,9 -25,9 -11,0 -20,-3 -28,-10 -7,-6 -11,-14 -11,-23 0,-13 5,-25 15,-36 10,-12 24,-21 42,-27 18,-6 37,-9 56,-9 23,0 42,5 55,15 14,10 23,20 27,32 2,8 4,24 4,51l0 96c0,11 0,18 1,21 1,3 2,5 4,6 2,2 4,2 6,2 5,0 9,-3 14,-9l8 6c-9,13 -18,23 -27,28 -9,6 -20,9 -32,9 -14,0 -25,-3 -33,-10 -8,-6 -13,-16 -15,-30zm0 -19l0 -82c-21,12 -37,26 -47,40 -7,9 -11,19 -11,29 0,8 3,15 9,21 5,5 11,7 19,7 8,0 19,-5 30,-15z"/>
    <path id="2" class="fil2" d="M1773 464l-83 -191c-10,-24 -18,-38 -24,-45 -4,-4 -10,-7 -18,-9l0 -9 131 0 0 9c-8,0 -14,2 -17,5 -4,4 -6,8 -6,14 0,6 4,19 12,37l41 92 32 -80c9,-23 14,-39 14,-49 0,-5 -2,-10 -6,-13 -4,-4 -11,-5 -21,-6l0 -9 80 0 0 9c-7,1 -14,4 -19,9 -4,5 -12,19 -22,42l-82 194 -12 0z"/>
    <path id="3" class="fil2" d="M2059 295l0 99c0,20 1,32 4,37 2,5 6,9 12,12 6,3 18,5 34,5l0 9 -182 0 0 -9c16,0 28,-2 33,-5 6,-3 11,-7 13,-12 2,-5 3,-17 3,-37l0 -233c0,-19 -1,-31 -3,-36 -2,-6 -7,-10 -13,-13 -6,-3 -17,-4 -33,-4l0 -9 156 0c51,0 88,9 111,27 22,19 33,41 33,69 0,23 -7,43 -21,60 -15,16 -35,28 -60,34 -17,4 -46,6 -87,6zm0 -176l0 155c6,1 10,1 13,1 22,0 39,-6 50,-19 12,-13 18,-33 18,-60 0,-26 -6,-46 -18,-58 -11,-13 -29,-19 -52,-19l-11 0z"/>
    <path id="4" class="fil2" d="M2364 210l0 56c16,-25 31,-42 43,-50 12,-9 24,-13 35,-13 10,0 18,3 24,9 6,6 9,15 9,26 0,11 -3,21 -9,27 -5,7 -12,10 -20,10 -10,0 -18,-3 -24,-9 -7,-6 -11,-9 -13,-10 -1,-1 -3,-2 -6,-2 -5,0 -9,2 -14,6 -7,6 -13,15 -16,26 -6,17 -9,36 -9,56l0 57 0 15c0,10 1,16 2,19 2,5 6,9 10,11 4,2 11,3 21,4l0 9 -134 0 0 -9c11,-1 18,-4 22,-9 4,-5 5,-18 5,-40l0 -137c0,-14 0,-23 -2,-27 -1,-5 -4,-9 -7,-11 -4,-2 -10,-4 -18,-5l0 -9 101 0z"/>
    <path id="5" class="fil2" d="M2638 420c-30,27 -57,40 -81,40 -14,0 -26,-4 -35,-14 -10,-9 -14,-20 -14,-34 0,-19 8,-36 24,-51 16,-15 52,-35 106,-60l0 -25c0,-18 -1,-30 -3,-35 -2,-5 -6,-9 -12,-13 -5,-3 -12,-5 -19,-5 -11,0 -21,3 -28,8 -5,3 -7,7 -7,11 0,3 2,8 7,13 7,8 10,15 10,22 0,9 -3,16 -9,22 -7,6 -15,9 -25,9 -11,0 -21,-3 -28,-10 -8,-6 -11,-14 -11,-23 0,-13 5,-25 15,-36 10,-12 24,-21 42,-27 18,-6 36,-9 56,-9 23,0 42,5 55,15 14,10 23,20 27,32 2,8 3,24 3,51l0 96c0,11 1,18 2,21 1,3 2,5 4,6 2,2 4,2 6,2 4,0 9,-3 14,-9l8 6c-9,13 -18,23 -27,28 -10,6 -21,9 -32,9 -15,0 -26,-3 -34,-10 -7,-6 -12,-16 -14,-30zm0 -19l0 -82c-21,12 -37,26 -48,40 -6,9 -10,19 -10,29 0,8 3,15 9,21 4,5 10,7 18,7 9,0 19,-5 31,-15z"/>
    <path id="6" class="fil2" d="M2873 210l0 32c13,-14 25,-24 36,-30 12,-6 25,-9 38,-9 16,0 29,4 40,13 10,9 17,20 21,33 3,11 4,30 4,58l0 97c0,19 2,30 5,35 4,5 11,8 21,9l0 9 -124 0 0 -9c9,-1 16,-5 20,-12 3,-4 4,-15 4,-32l0 -110c0,-21 -1,-33 -2,-39 -2,-5 -5,-9 -8,-12 -4,-3 -8,-4 -13,-4 -15,0 -29,10 -42,32l0 133c0,18 2,30 5,35 4,5 10,8 19,9l0 9 -124 0 0 -9c10,-1 17,-5 22,-10 3,-4 4,-15 4,-34l0 -140c0,-19 -2,-31 -5,-36 -4,-4 -11,-7 -21,-9l0 -9 100 0z"/>
    <path id="7" class="fil2" d="M3209 420c-30,27 -57,40 -81,40 -14,0 -26,-4 -35,-14 -10,-9 -14,-20 -14,-34 0,-19 8,-36 24,-51 16,-15 51,-35 106,-60l0 -25c0,-18 -1,-30 -3,-35 -2,-5 -6,-9 -12,-13 -5,-3 -12,-5 -19,-5 -11,0 -21,3 -28,8 -5,3 -7,7 -7,11 0,3 2,8 7,13 7,8 10,15 10,22 0,9 -3,16 -9,22 -7,6 -15,9 -25,9 -12,0 -21,-3 -28,-10 -8,-6 -12,-14 -12,-23 0,-13 5,-25 16,-36 10,-12 24,-21 41,-27 19,-6 37,-9 57,-9 23,0 42,5 55,15 14,10 23,20 27,32 2,8 3,24 3,51l0 96c0,11 1,18 2,21 1,3 2,5 4,6 2,2 3,2 6,2 4,0 9,-3 14,-9l8 6c-9,13 -18,23 -27,28 -10,6 -21,9 -33,9 -14,0 -25,-3 -33,-10 -8,-6 -12,-16 -14,-30zm0 -19l0 -82c-21,12 -37,26 -48,40 -7,9 -10,19 -10,29 0,8 3,15 9,21 4,5 10,7 18,7 9,0 19,-5 31,-15z"/>
    <path class="fil3" d="M1453 645c0,-21 6,-38 17,-50 11,-12 27,-18 47,-18 22,0 38,6 48,20 10,13 15,29 15,47 0,21 -5,37 -17,49 -11,12 -26,18 -46,18 -20,0 -35,-6 -47,-18 -11,-11 -17,-28 -17,-48zm28 -1c0,13 3,24 9,32 7,8 15,13 27,13 12,0 21,-5 27,-13 6,-9 9,-20 9,-32 0,-30 -12,-45 -36,-45 -24,0 -36,15 -36,45z"/>
    <path id="1" class="fil3" d="M1665 709l0 -130 55 0c17,0 30,2 38,8 9,5 13,14 13,28 0,21 -11,33 -34,37 9,4 18,15 29,32l16 25 -32 0 -28 -42c-3,-4 -6,-7 -9,-9 -4,-2 -9,-3 -17,-3l-5 0 0 54 -26 0zm26 -75l19 0c13,0 22,-1 27,-3 5,-3 7,-7 7,-14 0,-6 -2,-11 -6,-13 -4,-2 -13,-3 -27,-3l-20 0 0 33z"/>
    <path id="2" class="fil3" d="M1920 661l0 -22 57 0 0 52c-15,13 -33,20 -56,20 -21,0 -38,-6 -49,-19 -11,-12 -17,-29 -17,-48 0,-23 6,-39 19,-51 12,-11 28,-16 46,-16 31,0 50,13 55,38l-26 5c-4,-14 -14,-21 -29,-21 -25,0 -38,15 -38,43 0,15 4,26 10,34 6,8 16,13 28,13 11,0 21,-4 31,-11l0 -17 -31 0z"/>
    <path id="3" class="fil3" d="M2183 709l-29 0 -11 -29 -52 0 -11 29 -28 0 51 -130 28 0 52 130zm-48 -51l-19 -49 -17 49 36 0z"/>
    <polygon id="4" class="fil3" points="2261,709 2261,579 2286,579 2340,666 2340,579 2364,579 2364,709 2338,709 2285,624 2285,709 "/>
    <polygon id="5" class="fil3" points="2455,709 2455,579 2481,579 2481,709 "/>
    <path id="6" class="fil3" d="M2653 661l26 8c-8,28 -26,42 -54,42 -21,0 -36,-6 -45,-20 -10,-13 -15,-28 -15,-46 0,-21 6,-37 16,-50 11,-12 26,-18 45,-18 28,0 46,13 53,38l-26 6c-4,-14 -13,-22 -28,-22 -22,0 -32,15 -32,44 0,30 10,46 32,46 15,0 24,-10 28,-28z"/>
    <path id="7" class="fil3" d="M2758 667l26 -3c3,17 13,25 29,25 17,0 25,-6 25,-18 0,-4 -1,-8 -5,-10 -4,-2 -13,-5 -28,-9 -28,-7 -42,-20 -42,-39 0,-12 4,-20 13,-27 9,-6 20,-9 35,-9 32,0 49,13 50,39l-26 1c-2,-12 -10,-18 -25,-18 -14,0 -22,4 -22,12 0,3 1,6 4,8 3,3 11,6 25,9 22,6 35,12 40,19 5,7 8,15 8,24 0,27 -18,40 -53,40 -32,0 -50,-14 -54,-44z"/>
   </g>
   <g>
    <path class="fil4" d="M407 33c105,0 200,43 269,112 69,69 112,164 112,269 0,105 -43,200 -112,269 -69,69 -164,112 -269,112 -105,0 -200,-43 -269,-112 -32,-32 -58,-69 -77,-110 11,11 23,20 36,27 15,26 33,49 54,70 66,65 156,106 256,106 100,0 191,-41 256,-106 66,-66 106,-156 106,-256 0,-100 -40,-191 -106,-256 -65,-66 -156,-106 -256,-106 -100,0 -190,40 -256,106 -65,65 -106,156 -106,256 0,40 7,79 19,116 -9,-6 -18,-13 -25,-21 -8,-30 -13,-62 -13,-95 0,-105 43,-200 112,-269 69,-69 164,-112 269,-112z"/>
    <path class="fil5" d="M424 0c109,0 209,44 281,116 72,72 116,172 116,281 0,110 -44,209 -116,281 -72,72 -172,117 -281,117 -110,0 -209,-45 -281,-117 -28,-28 -52,-60 -70,-95 11,9 23,17 35,23l1 1 -1 0 1 0c13,21 29,40 47,58 69,69 163,111 268,111 104,0 199,-42 268,-111 68,-68 110,-163 110,-268 0,-104 -42,-199 -110,-267 -69,-69 -164,-111 -268,-111 -105,0 -199,42 -268,111 -69,68 -111,163 -111,267 0,48 9,94 25,136 -9,-5 -18,-11 -26,-19 -11,-37 -18,-76 -18,-117 0,-109 45,-209 117,-281 72,-72 171,-116 281,-116z"/>
    <path class="fil6" d="M519 482l92 0c0,-46 -18,-87 -48,-118 -8,42 -23,82 -44,118zm-31 -165l-3 -1c-27,41 -60,71 -99,106 -7,-42 -5,-80 12,-109 -81,16 -142,85 -142,169l99 0c55,-45 97,-95 133,-165z"/>
    <polygon class="fil7" points="436,177 421,293 446,294 "/>
    <polygon class="fil8" points="331,197 358,312 381,303 "/>
    <polygon class="fil9" points="232,255 299,352 317,336 "/>
    <polygon class="fil10" points="159,352 258,416 269,394 "/>
    <polygon class="fil11" points="131,470 248,481 248,457 "/>
    <polygon class="fil12" points="536,197 509,312 487,303 "/>
    <polygon class="fil13" points="635,255 568,352 550,336 "/>
    <polygon class="fil14" points="708,352 609,416 599,394 "/>
    <polygon class="fil15" points="737,469 620,480 620,456 "/>
    <path class="fil16" d="M99 545c115,36 250,1 323,-58 91,-72 128,-172 117,-297 -35,54 -77,61 -116,91 -39,33 -46,82 -37,140 48,-42 86,-78 116,-134 -39,88 -86,145 -150,197 -62,49 -122,60 -253,61z"/>
    <path class="fil17" d="M108 606c139,57 366,-53 426,-257 12,-36 16,-114 5,-161 32,41 54,84 63,130l-32 -14c-6,231 -219,408 -462,302z"/>
    <path class="fil18" d="M0 465c112,199 407,98 499,-48 -87,166 -417,316 -499,48z"/>
   </g>
  </g>
 </g>
</svg>
